<svg xmlns="http://www.w3.org/2000/svg" viewBox="0 0 1089.79 239.36"><defs><style>.cls-1{fill:#fff;}</style></defs><g id="Layer_2" data-name="Layer 2"><g id="Layer_1-2" data-name="Layer 1"><g id="Layer_2-2" data-name="Layer 2"><g id="Layer_1-2-2" data-name="Layer 1-2"><path class="cls-1" d="M234.5,13.51V76.88a22.6,22.6,0,0,1-41.41,12.53l-43.5-65.26a12.6,12.6,0,0,0-23.09,7V208.23a22.6,22.6,0,0,1-41.41,12.54l-43.5-65.26a12.24,12.24,0,0,0-14.14-5.07A12.23,12.23,0,0,0,18.5,162.5v63.36H27V162.5a3.81,3.81,0,0,1,2.91-3.93,3.8,3.8,0,0,1,4.6,1.65L78,225.48a31.1,31.1,0,0,0,57-17.25V162.5a4.1,4.1,0,0,1,7.51-2.28L186,225.48a30.89,30.89,0,0,0,25.77,13.88,32,32,0,0,0,9.12-1.36A30.93,30.93,0,0,0,243,208.23V13.51Z"/><path class="cls-1" d="M8.5,162.5a22.18,22.18,0,0,1,16.05-21.63A22.17,22.17,0,0,1,49.91,150l43.5,65.26a12.6,12.6,0,0,0,23.09-7V31.14a22.6,22.6,0,0,1,41.41-12.53l43.5,65.26a12.6,12.6,0,0,0,23.09-7V13.51H216V76.88a4.1,4.1,0,0,1-7.51,2.27L165,13.89a31.1,31.1,0,0,0-57,17.25V76.88a4.1,4.1,0,0,1-7.51,2.27L57,13.89A31.1,31.1,0,0,0,0,31.14V225.86H8.5Z"/><path class="cls-1" d="M369.72,94.73c20.58,0,28.87,11.67,28.87,24.47v45.31H372V127.36c0-8.29-4.9-12.55-13.81-12.55-11.42,0-16.56,7.4-16.56,15.94v33.76H315v-68h25.85v9.79h.25C346.75,99.37,356.54,94.73,369.72,94.73Z"/><path class="cls-1" d="M512.91,148.44c-6.27,0-8.66-.63-8.66-6.52V114h17.57V96.48H504.25V74.9h-26.6V96.48h-31.5V92.59c0-3.76.37-5.39,5.14-5.39h12.43V72.14a114.09,114.09,0,0,0-15.56-1c-25.1,0-28.62,7.53-28.62,20.08v5.27H405.61V114h13.93v50.46h26.61V114h31.5v33.51c0,15.82,9.66,18.45,24.72,18.45a140.8,140.8,0,0,0,20-1.25V148.19C519.19,148.32,516.05,148.44,512.91,148.44Z"/><path class="cls-1" d="M540.15,99.62l18.19,54.09h.26l17.69-54.09h11.17l-23.72,64.89H552.32l-24.1-64.89Z"/><path class="cls-1" d="M648.08,115.56V153c0,2.38,1.13,3.64,3.39,3.64a10.09,10.09,0,0,0,3.26-.63v8.29a15.81,15.81,0,0,1-7.66,1.75c-5.77,0-9-3.26-9-10-5.65,6.65-13.31,10-22.84,10-13.31,0-21.47-6.52-21.47-18.2,0-5.77,1.89-10.41,5.65-13.8s12.3-6,26.23-7.78c9.42-1.13,11.93-3.39,11.93-8,0-7.16-4.4-10.67-14.44-10.67-10.54,0-15.68,3.89-16.19,12.3H596.25c.75-14.44,10.54-21.71,27.61-21.71C642.18,98.12,648.08,105.39,648.08,115.56Zm-30.5,41c12.43,0,19.83-7.28,19.83-14.43V131a17.92,17.92,0,0,1-7.53,2.63L619,135.26c-9.41,1.38-13.93,5-13.93,11.8-.07,6,4.6,9.54,12.51,9.54Z"/><path class="cls-1" d="M675.94,74.9v89.61H665.27V74.9Z"/><path class="cls-1" d="M703.17,99.62V143.8c0,7.53,5,12.8,13.18,12.8,12.42,0,19.2-8.16,19.2-20v-37h10.67v64.89H736.17v-10.3h-.25c-4.64,8.29-12,11.8-21.08,11.8-15.19,0-22.34-7.9-22.34-23.09V99.62Z"/><path class="cls-1" d="M813.11,115.56V153c0,2.38,1.13,3.64,3.39,3.64a10.09,10.09,0,0,0,3.26-.63v8.29A15.8,15.8,0,0,1,812.1,166c-5.77,0-9-3.26-9-10-5.65,6.65-13.31,10-22.84,10-13.31,0-21.47-6.52-21.47-18.2,0-5.77,1.89-10.41,5.65-13.8s12.3-6,26.23-7.78c9.41-1.13,11.93-3.39,11.93-8,0-7.16-4.4-10.67-14.44-10.67-10.54,0-15.69,3.89-16.19,12.3h-10.7c.76-14.44,10.55-21.71,27.61-21.71C807.21,98.12,813.11,105.39,813.11,115.56Zm-30.5,41c12.43,0,19.83-7.28,19.83-14.43V131a17.92,17.92,0,0,1-7.53,2.63L784,135.26c-9.41,1.38-13.93,5-13.93,11.8,0,6,4.63,9.54,12.54,9.54Z"/><path class="cls-1" d="M844.48,80.17V99.62h12.93V109H844.48v40.67c0,3.26,1,4.89,3.26,5.14a59.14,59.14,0,0,0,6.65.25h3v9.42H848.6c-11.8,0-14.81-3.77-14.81-13.56V109h-11v-9.4h11V80.17Z"/><path class="cls-1" d="M880.5,74.9V88H869.83v-13Zm0,24.72v64.89H869.83V99.62Z"/><path class="cls-1" d="M956.55,132.13c0,20.08-12.43,33.88-31.5,33.88-18.83,0-31.5-13.17-31.5-33.88s12-34,31.5-34C945,98.12,956.55,112.3,956.55,132.13Zm-31.5,24.47c11.67,0,20.2-9.79,20.2-24.47s-8.53-24.6-20.33-24.6c-11.29,0-20.08,9.54-20.08,24.6C904.84,146.81,913.25,156.6,925.05,156.6Z"/><path class="cls-1" d="M1022.81,121.33v43.18h-10.67V120.2c0-7.15-4.64-12.67-13.3-12.67-12.17,0-19.08,8.16-19.08,20v37H969.1V99.62h10v10.29h.25c4.77-8.15,11.54-11.79,21.08-11.79C1016.16,98.12,1022.81,106.4,1022.81,121.33Z"/><path class="cls-1" d="M1086.94,118.45h-10.67v-.13c-.62-6.9-6.52-10.79-15.06-10.79s-13.8,3-13.8,8.28c0,4.77,4.39,7.53,13.18,9.54l10,2.26c12.55,2.76,19.2,8.16,19.2,18,0,12.8-10.67,20.45-27.61,20.45-16.44,0-26.86-7.4-27.49-22h10.67c.25,8,6.65,12.55,17.44,12.55,10.3,0,15.69-3.26,15.69-9.66a7.86,7.86,0,0,0-4-6.91c-2.64-1.63-8-3.26-16.19-5-16.7-3.51-22.22-8.78-22.22-18.45,0-11.42,10.17-18.44,24.35-18.44C1077.91,98.12,1086.06,104.89,1086.94,118.45Z"/></g></g></g></g></svg>